<svg width="380px" height="240px" viewBox="0 0 380 240" version="1.1" xmlns="http://www.w3.org/2000/svg" xmlns:xlink="http://www.w3.org/1999/xlink">
    <!-- Generator: Sketch 46.2 (44496) - http://www.bohemiancoding.com/sketch -->
    <desc>Created with Sketch.</desc>
    <defs></defs>
    <g id="Page-1" stroke="none" stroke-width="1" fill="none" fill-rule="evenodd">
        <g id="Desktop-HD" transform="translate(-520.000000, -894.000000)" fill="#6513FE">
            <g id="Services-Card" transform="translate(520.000000, 894.000000)">
                <path d="M73.1121903,-66.6898146 L214.319466,-66.6898146 L214.319466,-66.6898146 C224.887552,-66.6898146 234.211953,-59.7770437 237.283452,-49.6651534 L322.531488,230.98569 L322.531488,230.98569 C326.383861,243.668349 319.2255,257.072641 306.542841,260.925014 C305.232319,261.323087 303.890126,261.608245 302.530962,261.777365 L76.0756498,289.95513 L76.0756498,289.95513 C62.9222501,291.591804 50.9325268,282.255653 49.2958533,269.102253 C49.1735287,268.11917 49.1121903,267.129457 49.1121903,266.138793 L49.1121903,-42.6898146 L49.1121903,-42.6898146 C49.1121903,-55.9446486 59.8573563,-66.6898146 73.1121903,-66.6898146 Z" id="Rectangle-2" transform="translate(186.343021, 111.725744) rotate(-47.000000) translate(-186.343021, -111.725744) "></path>
            </g>
        </g>
    </g>
</svg>